<?xml version="1.0" encoding="UTF-8" standalone="no"?>
<!DOCTYPE svg PUBLIC "-//W3C//DTD SVG 1.1//EN" "http://www.w3.org/Graphics/SVG/1.1/DTD/svg11.dtd">
<svg width="100%" height="100%" viewBox="0 0 128 128" version="1.1" xmlns="http://www.w3.org/2000/svg" xmlns:xlink="http://www.w3.org/1999/xlink" xml:space="preserve" xmlns:serif="http://www.serif.com/">
    <path d="M101.113,45.724l-23.247,0l14.202,-40.826c0.138,-0.397 0.208,-0.816 0.208,-1.238c0,-2.007 -1.596,-3.658 -3.534,-3.66l-42.415,-0c-1.516,-0 -2.871,1.011 -3.352,2.5l-19.44,60.357c-0.12,0.373 -0.182,0.764 -0.182,1.157c-0,2.007 1.596,3.658 3.534,3.658l27.047,0l-16.291,55.638c-0.101,0.344 -0.152,0.7 -0.152,1.061c-0,2.006 1.596,3.658 3.535,3.658c1.051,-0 2.05,-0.487 2.721,-1.324l60.087,-74.989c0.525,-0.656 0.813,-1.481 0.813,-2.334c0,-2.006 -1.596,-3.658 -3.534,-3.658Z" style="fill:#facc15;fill-rule:nonzero;"/>
</svg>